Coordinates
version=1
nRows=24
nColumns=24
inDegrees=yes

Units are S.I. units (second, meters, Newtons, ...)
Angles are in degrees.

endheader
time	pelvis_tilt	pelvis_list	pelvis_rotation	pelvis_tx	pelvis_ty	pelvis_tz	hip_flexion_r	hip_adduction_r	hip_rotation_r	knee_angle_r	ankle_angle_r	subtalar_angle_r	mtp_angle_r	hip_flexion_l	hip_adduction_l	hip_rotation_l	knee_angle_l	ankle_angle_l	subtalar_angle_l	mtp_angle_l	lumbar_extension	lumbar_bending	lumbar_rotation
      2.23500000	     25.58976323	     -1.11196349	      3.14204056	      0.50775961	      0.84639115	      0.01117030	    -36.71388586	      1.73613932	    -19.41548025	    -37.40684281	     21.83072854	     20.56226056	     57.64627369	     -7.36817684	      0.99697755	    -10.71225962	    -16.14385756	     11.44494944	      1.85322781	     47.84873760	    -38.97811839	      3.32665735	     -9.37307769
      2.24000000	     25.47194367	     -0.75227012	      3.13613188	      0.51353402	      0.84642145	      0.01064942	    -35.76060027	      0.96755996	    -19.86190619	    -39.98156009	     20.62696629	     19.78614183	     58.91000803	     -7.39444488	      1.42156362	    -10.19905858	    -16.81864001	     11.71826876	      1.40870994	     47.35582110	    -38.83520521	      2.91821857	     -9.64085240
      2.24500000	     25.30206857	     -0.41890972	      3.10584850	      0.51931346	      0.84641153	      0.01017902	    -34.72937836	      0.21376056	    -20.19234363	    -42.51766722	     19.46579684	     18.86684647	     59.17652251	     -7.37985339	      1.81813224	     -9.79906892	    -17.47103376	     12.08802792	      1.09026843	     47.21826789	    -38.63423416	      2.51870729	     -9.84729506
      2.25000000	     25.18906895	     -0.02053529	      3.07109761	      0.52511722	      0.84650845	      0.00968796	    -33.77693381	     -0.60935599	    -20.55766056	    -44.96096672	     18.33644755	     17.83108892	     59.38693154	     -7.51031899	      2.29247882	     -9.43441556	    -17.94283410	     12.33308670	      0.86527339	     47.06904336	    -38.49147888	      2.06135560	    -10.06484198
      2.25500000	     25.04094800	      0.33032733	      3.06302391	      0.53087098	      0.84658607	      0.00915675	    -32.78228947	     -1.35314477	    -20.81020484	    -47.27715255	     17.20093842	     16.64978021	     59.67856303	     -7.62118090	      2.72942124	     -9.01938065	    -18.36384135	     12.74332963	      0.44151911	     46.79199004	    -38.31542538	      1.66627407	    -10.31829916
      2.26000000	     24.92533983	      0.68625224	      3.06032747	      0.53662351	      0.84675663	      0.00863482	    -31.83648287	     -2.08980526	    -21.05308529	    -49.46548219	     16.14466092	     15.38433842	     59.81518925	     -7.80495148	      3.15696180	     -8.69861080	    -18.70849385	     13.07260270	      0.26209941	     46.42366361	    -38.17294356	      1.27240187	    -10.54011703
      2.26500000	     24.82061229	      1.02613140	      3.03406534	      0.54239558	      0.84697868	      0.00817097	    -30.90981082	     -2.79454436	    -21.20295687	    -51.52342158	     15.34611047	     13.98780037	     59.61095934	     -8.05691595	      3.56569640	     -8.45342523	    -18.93287659	     13.50205143	      0.21436158	     46.17119672	    -38.03627058	      0.88031139	    -10.73509864
      2.27000000	     24.70884459	      1.33671953	      3.05356321	      0.54808662	      0.84721303	      0.00764030	    -29.98012767	     -3.43366432	    -21.33946794	    -53.47042069	     14.80574611	     12.68900711	     57.96709106	     -8.29437521	      3.93002547	     -8.21405399	    -19.17411390	     14.02958087	      0.37069927	     44.79163181	    -37.90027425	      0.54779410	    -10.93876752
      2.27500000	     24.62997027	      1.57595665	      3.05282269	      0.55375327	      0.84757398	      0.00719448	    -29.08432353	     -3.96937221	    -21.36381579	    -55.23003940	     14.28044220	     11.12664414	     57.30764204	     -8.58976161	      4.20351968	     -8.10368674	    -19.35202617	     14.45056327	      0.47090035	     44.62480375	    -37.79627827	      0.27220096	    -11.06801152
      2.28000000	     24.55074711	      1.78822732	      3.08292773	      0.55937846	      0.84795688	      0.00673082	    -28.19831828	     -4.43889964	    -21.37009737	    -56.87187191	     14.17562419	      9.76725145	     54.85897614	     -8.91569379	      4.43307626	     -7.98839253	    -19.45188518	     14.97261914	      0.87233880	     44.03350933	    -37.69547639	      0.04139959	    -11.21515082
      2.28500000	     24.48841512	      1.93709315	      3.07868936	      0.56492893	      0.84843838	      0.00631827	    -27.31186601	     -4.82419656	    -21.26362266	    -58.35050088	     14.10805984	      8.16552964	     54.14017880	     -9.27887684	      4.60505491	     -7.95104800	    -19.48492825	     15.38318715	      0.94823763	     43.92257225	    -37.61425966	     -0.14077910	    -11.29126157
      2.29000000	     24.45311572	      2.07055210	      3.09048032	      0.57045612	      0.84896260	      0.00592353	    -26.46571362	     -5.17192700	    -21.17304433	    -59.72891590	     14.43089203	      6.97710776	     50.82724301	     -9.66204567	      4.72562759	     -8.02520214	    -19.55470378	     15.89667512	      1.54328684	     43.26416470	    -37.56269326	     -0.29765303	    -11.35197205
      2.29500000	     24.40142275	      2.10959341	      3.15601686	      0.57584733	      0.84954059	      0.00546182	    -25.59435941	     -5.35781607	    -21.04080847	    -60.89977127	     14.67520717	      5.40816507	     50.13468524	    -10.03072003	      4.75254826	     -7.99423090	    -19.56527973	     16.32172274	      1.73889996	     43.17391335	    -37.50432437	     -0.32713667	    -11.43465914
      2.30000000	     24.37883850	      2.14305767	      3.18009404	      0.58126158	      0.85017182	      0.00509330	    -24.75426385	     -5.54586869	    -20.88328492	    -61.99047299	     15.29748128	      4.32916402	     46.92359293	    -10.43440058	      4.74796432	     -8.14791805	    -19.59442132	     16.84790945	      2.44813894	     42.51453767	    -37.46960491	     -0.37300030	    -11.43580711
      2.30500000	     24.34383259	      2.09235531	      3.26739090	      0.58653359	      0.85083981	      0.00467686	    -23.89759148	     -5.58181809	    -20.71909393	    -62.89286879	     15.90863772	      3.05294042	     45.28022270	    -10.80910404	      4.64573122	     -8.21501635	    -19.61205949	     17.27877811	      2.99542900	     42.11952430	    -37.43392378	     -0.30020038	    -11.46767166
      2.31000000	     24.31015564	      2.01539013	      3.31903222	      0.59175011	      0.85152105	      0.00430325	    -23.02369785	     -5.59293020	    -20.50561228	    -63.69441743	     16.61137446	      1.95048973	     43.45431057	    -11.19068841	      4.52303119	     -8.34347378	    -19.60528381	     17.72615488	      3.50216552	     41.67747752	    -37.40393324	     -0.21493584	    -11.45180949
      2.31500000	     24.26968515	      1.90009244	      3.37430070	      0.59690642	      0.85221640	      0.00395547	    -22.13602934	     -5.54021430	    -20.27250478	    -64.36562255	     17.37214791	      0.95264406	     41.84937247	    -11.55615689	      4.35549961	     -8.49344001	    -19.60117236	     18.16802558	      4.00752961	     41.25683123	    -37.36968865	     -0.08976974	    -11.41740503
      2.32000000	     24.17054102	      1.76133965	      3.42446510	      0.60197782	      0.85285933	      0.00357391	    -21.16372743	     -5.45887249	    -20.01881107	    -64.92958689	     18.06150721	     -0.04451259	     41.48409601	    -11.86062354	      4.18890806	     -8.57849883	    -19.55084737	     18.47203553	      4.19666838	     41.20633104	    -37.28055987	      0.06304094	    -11.37767117
      2.32500000	     24.17971911	      1.50471955	      3.53496365	      0.60702016	      0.85363766	      0.00328520	    -20.34778085	     -5.16953884	    -19.76928798	    -65.26583278	     18.96115209	     -0.76584339	     39.75916731	    -12.22101897	      3.82161505	     -8.81409868	    -19.66197724	     19.02319960	      4.97536110	     40.81781870	    -37.30331878	      0.35569443	    -11.31464495
      2.33000000	     24.09078443	      1.35760894	      3.53188708	      0.61201233	      0.85424916	      0.00301246	    -19.37247018	     -5.07250531	    -19.47795600	    -65.65437734	     19.94491824	     -1.23607356	     37.53817475	    -12.53710742	      3.65207390	     -8.96804178	    -19.60659272	     19.43384095	      5.35600300	     39.98671659	    -37.23224396	      0.49245562	    -11.20452203
      2.33500000	     23.96086818	      1.14187976	      3.58757454	      0.61689779	      0.85482689	      0.00269519	    -18.35571712	     -4.85767480	    -19.20163192	    -65.87392450	     20.74723257	     -1.75840720	     37.27132796	    -12.76545619	      3.39918437	     -9.04772174	    -19.60612521	     19.71079622	      5.59462501	     39.88986118	    -37.12581561	      0.72882305	    -11.11027196
      2.34000000	     23.89228588	      0.89912078	      3.64867490	      0.62186102	      0.85545818	      0.00248118	    -17.44434251	     -4.57882005	    -18.94956831	    -65.92374726	     21.65114556	     -2.13524004	     36.26653535	    -13.04762089	      3.07853427	     -9.28470413	    -19.66594121	     20.13920899	      6.19265629	     39.51297316	    -37.07394173	      0.98770522	    -11.06995131
      2.34500000	     23.81061692	      0.63174441	      3.65942069	      0.62673408	      0.85604683	      0.00228245	    -16.49633346	     -4.28097607	    -18.61991990	    -65.90051984	     22.61048439	     -2.18175341	     34.54833099	    -13.33124805	      2.77345749	     -9.45438021	    -19.66803416	     20.59101297	      6.50040547	     38.61651061	    -37.01745762	      1.25467250	    -10.90707052
      2.35000000	     23.65392210	      0.40550981	      3.66714816	      0.63158847	      0.85651030	      0.00206452	    -15.46702505	     -4.03790563	    -18.32850836	    -65.79970268	     23.41315305	     -2.23398331	     34.43473869	    -13.53241890	      2.53015242	     -9.56597652	    -19.64839189	     20.84362600	      6.63411233	     38.52148735	    -36.88413717	      1.48230199	    -10.79043082
